<svg xmlns="http://www.w3.org/2000/svg" fill="#fff" viewBox="0 0 30 30" class="design-iconfont">
  <path d="M15 28C22.1797 28 28 22.1797 28 15C28 7.8203 22.1797 2 15 2C7.8203 2 2 7.8203 2 15C2 22.1797 7.8203 28 15 28Z" stroke="#333" stroke-width="1.5" stroke-linecap="round" stroke-linejoin="round"/>
  <path d="M13.5831 11.8228L13.5831 17.6561C13.5831 19.2669 14.8889 20.5728 16.4997 20.5728H21.6039M21.6039 20.5728L19.781 18.75M21.6039 20.5728L19.781 22.3958M10.6664 11.8227L21.2393 11.8227M19.781 10L21.6039 11.8229L19.781 13.6458M7 11.8229C7 10.8161 7.81615 10 8.82292 10C9.82969 10 10.6458 10.8161 10.6458 11.8229C10.6458 12.8297 9.82969 13.6458 8.82292 13.6458C7.81615 13.6458 7 12.8297 7 11.8229Z" stroke="#333" stroke-width="1.5" stroke-linecap="round" stroke-linejoin="round"/>
</svg>
