<svg xmlns="http://www.w3.org/2000/svg" fill="none" viewBox="0 0 30 30" class="design-iconfont">
  <path d="M15 28C22.1797 28 28 22.1797 28 15C28 7.8203 22.1797 2 15 2C7.8203 2 2 7.8203 2 15C2 22.1797 7.8203 28 15 28Z" stroke="#333" stroke-width="1.5" stroke-linecap="round" stroke-linejoin="round"/>
  <path d="M17.0208 10.8228L17.0208 17.6561C17.0208 19.2669 15.715 20.5728 14.1041 20.5728H11.9999M22.9375 10.8228L17.651 10.8228L12.3646 10.8228" stroke="#333" stroke-width="1.5" stroke-linecap="round" stroke-linejoin="round"/>
  <path d="M9.82308 9C10.8298 9 11.646 9.81615 11.646 10.8229C11.646 11.8297 10.8298 12.6458 9.82308 12.6458C8.81631 12.6458 8.00016 11.8297 8.00016 10.8229C8.00016 9.81615 8.81631 9 9.82308 9Z" stroke="#333" stroke-width="1.5" stroke-linecap="round" stroke-linejoin="round"/>
  <path d="M9.82308 18C10.8298 18 11.646 18.8161 11.646 19.8229C11.646 20.8297 10.8298 21.6458 9.82308 21.6458C8.81631 21.6458 8.00016 20.8297 8.00016 19.8229C8.00016 18.8161 8.81631 18 9.82308 18Z" stroke="#333" stroke-width="1.5" stroke-linecap="round" stroke-linejoin="round"/>
  <path d="M22 9L23.8229 10.8229L22 12.6458" stroke="#333" stroke-width="1.5" stroke-linecap="round" stroke-linejoin="round"/>
</svg>
